<?xml version="1.0" encoding="utf-8"?>
<!-- Generator: Adobe Illustrator 25.2.1, SVG Export Plug-In . SVG Version: 6.00 Build 0)  -->
<svg version="1.1" id="Layer_1" xmlns="http://www.w3.org/2000/svg" xmlns:xlink="http://www.w3.org/1999/xlink" x="0px" y="0px"
	 viewBox="0 0 1200 560" style="enable-background:new 0 0 1200 560;" xml:space="preserve">
<style type="text/css">
	.st0{fill:#1E40AF;}
	.st1{fill:#FBBF24;}
</style>
<g>
	<g>
		<path class="st0" d="M33.2,482.5h29.2l28.3,74.2h-33l-2.6-9.7h-17l-2.9,9.7H4.9L33.2,482.5z M50.2,528.3L47,513.2h-0.2l-3.3,15.1
			H50.2z"/>
	</g>
	<g>
		<path class="st0" d="M100.2,442.7h45c16.9,0,52.6,1.7,52.6,28.5c0,9.5-4.5,18.1-16.9,22.5v0.3c16.3,6,20,16.6,20,26.7
			c0,29.6-31.6,34.3-53.5,34.3h-47.1V442.7z M148.1,488.3c5.9,0,8.7-3.1,8.7-7c0-4-2.9-7-8.7-7h-1.7v14H148.1z M148.4,524.9
			c7.3,0,10.7-3.9,10.7-8.7c0-4.8-3.6-8.7-10.7-8.7h-2v17.4H148.4z"/>
		<path class="st0" d="M210.7,442.7h46.1c23.1,0,54.6,5.7,54.6,35.7c0,12.1-5.7,20.8-14.1,26.7l25.6,49.9h-48.5l-16.7-36.9H257V555
			h-46.2V442.7z M260.4,492.3c7.3,0,10.5-3.9,10.5-8.7c0-4.8-3.4-8.5-10.5-8.5H257v17.2H260.4z"/>
		<path class="st0" d="M327.7,442.7h46.2V555h-46.2V442.7z"/>
		<path class="st0" d="M384.7,499.8c0-33.8,27.8-58.8,67-58.8c14.9,0,28.5,3.6,37.4,8.1v38.5c-9-3.9-22.9-7.6-33.3-7.6
			c-16.4,0-25,9.3-25,21.4c0,13.2,10.4,21.1,21.7,21.1c2.2,0,3.7-0.3,4.7-0.6v-5.7H446v-25.1h45.9v55.5
			c-8.2,5.1-22.8,10.2-41.2,10.2C410.2,556.7,384.7,532,384.7,499.8z"/>
		<path class="st0" d="M504.9,442.7h46.2v34.7h23.3v-34.7h46.2V555h-46.2V514h-23.3V555h-46.2V442.7z"/>
		<path class="st0" d="M664,480.9h-31.3v-38.1h108.9v38.1h-31.3V555H664V480.9z"/>
		<path class="st0" d="M753.6,442.7h80.8v37.5h-34.6v6h27.9V513h-27.9v6.4h36.8V555h-83V442.7z"/>
		<path class="st0" d="M848.1,442.7h46.1c23.1,0,54.6,5.7,54.6,35.7c0,12.1-5.7,20.8-14.1,26.7l25.6,49.9h-48.5l-16.7-36.9h-0.6V555
			h-46.2V442.7z M897.7,492.3c7.3,0,10.5-3.9,10.5-8.7c0-4.8-3.4-8.5-10.5-8.5h-3.4v17.2H897.7z"/>
	</g>
	<g>
		<path class="st0" d="M969.6,556.7v-74.2h31.1c14.4,0,25.4,4.4,32.9,11.6c6.6,6.3,10.8,14.8,10.8,25.5c0,10.3-3.9,19.1-10.6,25.4
			c-7.7,7.4-18.9,11.7-32.9,11.7H969.6z M1000.2,532.5h0.7c5.1,0,9-1.6,11.5-4.2c2.1-2.2,3.4-5.1,3.4-8.7c0-3.7-1.3-6.8-3.4-8.9
			c-2.2-2.3-5.6-4-11.3-4h-0.9V532.5z"/>
		<path class="st0" d="M1069.2,482.5h29.2l28.3,74.2h-33l-2.6-9.7h-17l-2.9,9.7h-30.3L1069.2,482.5z M1086.2,528.3l-3.3-15.1h-0.2
			l-3.3,15.1H1086.2z"/>
		<path class="st0" d="M1138,525.3l-27.3-42.9h34.4l8.4,16.9h0.2l8.5-16.9h33.3l-27.1,41.9v32.3H1138V525.3z"/>
	</g>
	<g>
		<path class="st1" d="M503.8,144.7c0,42.6-0.1,85.1,0.1,127.7c0,6.9-1.7,9.8-9,11.1c-9.3,1.7-18.8,4.4-27.3,8.5
			c-7.2,3.4-9.6,0.9-12.9-4.8c-35.4-61.8-71-123.6-106.8-185.2c-6.7-11.5-13.2-23.2-21.5-33.8c-7.3-9.4-6.3-12.1,4.1-17.4
			C382.4,24,437.8,10.6,495.6,5.5c8.2-0.7,8.4,3.4,8.4,9.4C503.8,58.2,503.9,101.4,503.8,144.7C503.9,144.7,503.8,144.7,503.8,144.7
			z"/>
		<path class="st1" d="M552.8,6.2C609.8,9.2,665.9,24.9,718.9,52c8.7,4.4,6.5,9.6,3,14.9c-27.8,42.3-50.9,87.2-76.7,130.7
			c-17.7,29.8-34.8,60-51.9,90.2c-3.1,5.4-5.5,7.4-12.1,4.3c-8.6-4-18-6.9-27.3-8.5c-7.8-1.3-9.4-4.6-9.4-11.8
			c0.2-59.5,0.1-119.1,0.1-178.6c0-26.9,0-53.9,0-80.8C544.6,8.4,544,4.1,552.8,6.2z"/>
		<path class="st1" d="M283.6,78.8c4.7-0.9,5.8,3.4,7.6,6.7c27.6,47.5,55.1,95,82.6,142.5c16,27.6,31.8,55.3,48,82.8
			c3.1,5.2,3.7,8.6-1.4,13.4c-6.6,6.3-12.5,13.6-17.6,21.2c-3.9,5.9-6.9,5.8-12.6,2.5c-73.9-42.9-147.9-85.6-221.9-128.3
			c-11.3-6.5-11.4-6.6-3.6-17.5c13.6-19,28.4-37.2,42.2-56c11.2-15.4,25.8-26.1,39.6-38.3c9.9-8.8,19.8-17.7,29.5-26.7
			C278.2,79.4,280.5,79.1,283.6,78.8z"/>
		<path class="st1" d="M652.6,351c-3.5,0.6-4.3-2.2-5.6-4.1c-5.4-7.9-11.1-15.7-18.2-22.1c-5.1-4.6-5.6-8.1-2.1-14.1
			c27.4-46.8,54.4-93.8,81.5-140.7c15.9-27.5,31.7-55.1,47.6-82.7c5.4-9.3,8.4-10.2,17.1-3.4c43.8,34.5,83.1,73.1,111.9,121.6
			c4.4,7.5,3,10-3.5,13.6c-44,24.8-87.7,50.2-131.5,75.3c-30.1,17.2-60.2,34.5-89.8,52.5C657.4,348.4,654.9,349.7,652.6,351z"/>
		<path class="st1" d="M237.3,428.3c-42.9,0-85.8-0.2-128.7,0.2c-8.6,0.1-11.3-2.6-10.2-10.8c4.7-35.4,5.4-71.4,17.2-105.6
			c6.7-19.3,13.4-38.5,21.4-57.2c3.3-7.7,7.1-2.9,10.6-0.9c46.1,26.5,92.1,53.1,138.1,79.7c29.1,16.8,58.2,33.8,87.5,50.4
			c6.3,3.5,10.3,6.6,7,14.7c-1.8,4.5-1.8,9.7-2.4,14.6c-1.7,14.8-1.6,14.8-17.1,14.8C319.6,428.2,278.5,428.2,237.3,428.3z"/>
		<path class="st1" d="M809.9,428.3c-42.9,0-85.9-0.2-128.8,0.2c-7.9,0.1-10.7-2-10.3-10c0.3-5.9-0.3-12.3-2.3-17.8
			c-3.3-9,0.2-12.9,7.8-17.3c74.2-42.4,148.2-85.1,222-128.1c8.1-4.7,11.2-4.4,15.1,4.8c17.8,42.2,29.1,85.8,32.8,131.5
			c0.7,9.2,1.2,18.3,2,27.5c0.6,7.6-2,9.5-9.4,9.4C895.8,428.1,852.8,428.3,809.9,428.3z"/>
		<path class="st1" d="M524.2,428.2c-32.2,0-64.5-0.3-96.7,0.2c-8.7,0.1-10.5-2.6-9.9-10.8c3.6-49,46.9-92.4,96.6-96.1
			c54.6-4.1,102.7,30.5,114.4,82.6c5.4,24.1,5.4,24.1-19.3,24.1C580.9,428.2,552.6,428.2,524.2,428.2z"/>
	</g>
</g>
</svg>
